<svg width="21" height="21" viewBox="0 0 21 21" fill="none" xmlns="http://www.w3.org/2000/svg">
<path d="M7.55 0.532999C7.95577 0.191021 8.46935 0.00346375 9 0.00346375C9.53065 0.00346375 10.0442 0.191021 10.45 0.532999L17.2 6.227C17.708 6.655 18 7.284 18 7.947V10.766C17.4287 10.2548 16.6834 9.98174 15.9171 10.0028C15.1508 10.0239 14.4216 10.3376 13.8793 10.8794C13.3369 11.4212 13.0226 12.1501 13.0008 12.9164C12.979 13.6826 13.2514 14.4282 13.762 15H13.248C12.542 15 11.912 15.325 11.5 15.833V12.75C11.5 12.5511 11.421 12.3603 11.2803 12.2197C11.1397 12.079 10.9489 12 10.75 12H7.25C7.05109 12 6.86032 12.079 6.71967 12.2197C6.57902 12.3603 6.5 12.5511 6.5 12.75V17.75C6.5 18.2141 6.31563 18.6592 5.98744 18.9874C5.65925 19.3156 5.21413 19.5 4.75 19.5H1.75C1.52019 19.5 1.29262 19.4547 1.0803 19.3668C0.867984 19.2788 0.675066 19.1499 0.512563 18.9874C0.350061 18.8249 0.221157 18.632 0.133211 18.4197C0.0452652 18.2074 0 17.9798 0 17.75V7.947C0 7.284 0.292 6.655 0.8 6.227L7.55 0.532999ZM14 13C14 12.4696 14.2107 11.9609 14.5858 11.5858C14.9609 11.2107 15.4696 11 16 11C16.5304 11 17.0391 11.2107 17.4142 11.5858C17.7893 11.9609 18 12.4696 18 13C18 13.5304 17.7893 14.0391 17.4142 14.4142C17.0391 14.7893 16.5304 15 16 15C15.4696 15 14.9609 14.7893 14.5858 14.4142C14.2107 14.0391 14 13.5304 14 13ZM13.25 16C12.56 16 12 16.56 12 17.25V17.253L12.001 17.551L12.009 17.657C12.0641 18.1531 12.2425 18.6275 12.528 19.037C13.074 19.817 14.114 20.5 16 20.5C17.886 20.5 18.926 19.817 19.472 19.037C19.7575 18.6275 19.9359 18.1531 19.991 17.657L19.999 17.551C20.002 17.481 20.001 17.409 20.001 17.338L20 17.25C20 16.56 19.44 16 18.75 16H13.25Z" fill="black"/>
</svg>
