<?xml version="1.0" encoding="UTF-8" standalone="no"?>
<!-- Created with Inkscape (http://www.inkscape.org/) -->

<svg
   xmlns:dc="http://purl.org/dc/elements/1.1/"
   xmlns:cc="http://creativecommons.org/ns#"
   xmlns:rdf="http://www.w3.org/1999/02/22-rdf-syntax-ns#"
   xmlns:svg="http://www.w3.org/2000/svg"
   xmlns="http://www.w3.org/2000/svg"
   xmlns:sodipodi="http://sodipodi.sourceforge.net/DTD/sodipodi-0.dtd"
   xmlns:inkscape="http://www.inkscape.org/namespaces/inkscape"
   width="256px"
   height="256px"
   viewBox="0 0 256 256"
   version="1.1"
   id="SVGRoot"
   inkscape:version="0.92.4 (5da689c313, 2019-01-14)"
   sodipodi:docname="facebook.svg">
  <defs
     id="defs815" />
  <sodipodi:namedview
     id="base"
     pagecolor="#ffffff"
     bordercolor="#666666"
     borderopacity="1.0"
     inkscape:pageopacity="0.0"
     inkscape:pageshadow="2"
     inkscape:zoom="0.5"
     inkscape:cx="442.35454"
     inkscape:cy="8.6809708"
     inkscape:document-units="px"
     inkscape:current-layer="layer1"
     showgrid="false"
     inkscape:window-width="1366"
     inkscape:window-height="705"
     inkscape:window-x="-8"
     inkscape:window-y="-8"
     inkscape:window-maximized="1"
     inkscape:grid-bbox="true" />
  <metadata
     id="metadata818">
    <rdf:RDF>
      <cc:Work
         rdf:about="">
        <dc:format>image/svg+xml</dc:format>
        <dc:type
           rdf:resource="http://purl.org/dc/dcmitype/StillImage" />
        <dc:title></dc:title>
      </cc:Work>
    </rdf:RDF>
  </metadata>
  <g
     inkscape:label="Layer 1"
     inkscape:groupmode="layer"
     id="layer1">
    <path
       style="fill:#ffffff;stroke-width:1;fill-opacity:1"
       d="M 104.45556,225.77354 C 68.24457,216.74547 40.45742,189.79999 29.6151,153.2 c -2.49836,-8.43363 -2.7942,-11.17168 -2.87765,-26.63333 -0.0742,-13.74706 0.30993,-18.818 1.89879,-25.06667 9.59229,-37.72455 37.72125,-66.040426 75.32162,-75.822138 14.81462,-3.854012 35.12506,-3.892725 49.71075,-0.09475 38.38429,9.994896 65.87559,37.939718 75.71229,76.961338 1.5541,6.16501 1.95592,11.3924 1.88669,24.54444 -0.079,14.99816 -0.37744,17.67465 -2.91209,26.11111 -11.33368,37.7236 -40.79453,65.22392 -78.72772,73.48861 l -4.43889,0.96713 v -35.92232 -35.92231 h 11.92812 11.92813 l 0.58241,-2.87222 c 1.14552,-5.64915 3.76134,-23.25554 3.76134,-25.31653 0,-2.0008 -0.67098,-2.10014 -14.18519,-2.10014 h -14.18517 l 0.34629,-12.98313 c 0.29882,-11.20353 0.64549,-13.38675 2.52911,-15.92777 3.33673,-4.50128 7.31364,-5.92314 17.92274,-6.40791 l 9.66111,-0.44146 V 77.41484 c 0,-7.57643 -0.42809,-12.61169 -1.10793,-13.03185 -0.60936,-0.37661 -7.54917,-0.93973 -15.42181,-1.25138 -11.32295,-0.44825 -15.51506,-0.21745 -20.06255,1.10454 -7.98551,2.32145 -14.74797,7.10092 -19.14189,13.52881 -5.39403,7.89095 -6.93249,15.17709 -6.93249,32.83225 v 14.92501 H 99.75556 86.7 v 15.14445 15.14444 h 13.05556 13.05555 v 36.03333 c 0,19.81834 -0.1175,35.99931 -0.26111,35.95772 -0.14361,-0.0416 -3.78611,-0.95448 -8.09444,-2.02862 z"
       id="path1459"
       inkscape:connector-curvature="0" />
  </g>
</svg>
