<svg width="26" height="22" viewBox="0 0 26 22" fill="none" xmlns="http://www.w3.org/2000/svg">
<path fill-rule="evenodd" clip-rule="evenodd" d="M25.5 11C25.5 11.4144 25.3354 11.8118 25.0424 12.1048C24.7493 12.3979 24.3519 12.5625 23.9375 12.5625H5.83439L12.5438 19.2687C12.689 19.414 12.8043 19.5865 12.8829 19.7763C12.9615 19.9661 13.002 20.1695 13.002 20.375C13.002 20.5804 12.9615 20.7839 12.8829 20.9737C12.8043 21.1635 12.689 21.336 12.5438 21.4812C12.3985 21.6265 12.226 21.7418 12.0362 21.8204C11.8464 21.899 11.643 21.9395 11.4375 21.9395C11.2321 21.9395 11.0286 21.899 10.8388 21.8204C10.649 21.7418 10.4765 21.6265 10.3313 21.4812L0.956266 12.1062C0.810756 11.9611 0.695309 11.7887 0.616539 11.5988C0.537769 11.409 0.497223 11.2055 0.497223 11C0.497223 10.7945 0.537769 10.591 0.616539 10.4011C0.695309 10.2113 0.810756 10.0389 0.956266 9.89374L10.3313 0.518741C10.6247 0.225345 11.0226 0.0605164 11.4375 0.0605164C11.8524 0.0605164 12.2504 0.225345 12.5438 0.518741C12.8372 0.812136 13.002 1.21007 13.002 1.62499C13.002 2.03992 12.8372 2.43785 12.5438 2.73124L5.83439 9.43749H23.9375C24.3519 9.43749 24.7493 9.60211 25.0424 9.89514C25.3354 10.1882 25.5 10.5856 25.5 11Z" fill="white"/>
</svg>
