<?xml version="1.0" encoding="UTF-8" standalone="no"?>
<!-- Created with Inkscape (http://www.inkscape.org/) -->

<svg
   xmlns:dc="http://purl.org/dc/elements/1.1/"
   xmlns:cc="http://creativecommons.org/ns#"
   xmlns:rdf="http://www.w3.org/1999/02/22-rdf-syntax-ns#"
   xmlns:svg="http://www.w3.org/2000/svg"
   xmlns="http://www.w3.org/2000/svg"
   xmlns:sodipodi="http://sodipodi.sourceforge.net/DTD/sodipodi-0.dtd"
   xmlns:inkscape="http://www.inkscape.org/namespaces/inkscape"
   width="256px"
   height="256px"
   viewBox="0 0 256 256"
   version="1.1"
   id="SVGRoot"
   inkscape:version="0.92.4 (5da689c313, 2019-01-14)"
   sodipodi:docname="instagram.svg">
  <defs
     id="defs815" />
  <sodipodi:namedview
     id="base"
     pagecolor="#ffffff"
     bordercolor="#666666"
     borderopacity="1.0"
     inkscape:pageopacity="0.0"
     inkscape:pageshadow="2"
     inkscape:zoom="0.5"
     inkscape:cx="-52.901343"
     inkscape:cy="165.64409"
     inkscape:document-units="px"
     inkscape:current-layer="layer1"
     showgrid="false"
     inkscape:window-width="1366"
     inkscape:window-height="705"
     inkscape:window-x="-8"
     inkscape:window-y="-8"
     inkscape:window-maximized="1"
     inkscape:grid-bbox="true" />
  <metadata
     id="metadata818">
    <rdf:RDF>
      <cc:Work
         rdf:about="">
        <dc:format>image/svg+xml</dc:format>
        <dc:type
           rdf:resource="http://purl.org/dc/dcmitype/StillImage" />
        <dc:title></dc:title>
      </cc:Work>
    </rdf:RDF>
  </metadata>
  <g
     inkscape:label="Layer 1"
     inkscape:groupmode="layer"
     id="layer1">
    <path
       style="fill:#ffffff;fill-opacity:1"
       d="M 107.10932,237.22009 C 96.47292,236.00314 83.13181,232.01864 72.2787,226.81745 36.58095,209.70985 13.20777,176.32412 9.03619,136.48325 6.41196,111.42041 13.55254,83.77349 28.23359,62.154684 50.48825,29.383251 92.20011,10.04847 131.5134,14.28119 c 14.2775,1.53721 25.80273,4.935065 39.09592,11.526204 13.02407,6.457703 21.58022,12.724182 31.19813,22.849337 32.11277,33.806399 39.95004,83.367289 19.83019,125.401139 -5.84833,12.21817 -11.24307,19.98797 -20.76334,29.9045 -17.60734,18.34022 -42.33311,30.4332 -68.09936,33.30631 -10.74447,1.19808 -14.83725,1.19033 -25.66562,-0.0486 z m 56,-58.24939 c 4.91719,-2.62293 7.85269,-5.49764 10.34732,-10.13303 2.0984,-3.89914 2.15268,-4.98339 2.15268,-43 0,-38.016608 -0.0543,-39.100856 -2.15268,-42.999996 -2.49463,-4.635388 -5.43013,-7.510097 -10.34732,-10.133027 -3.24488,-1.730888 -6.34275,-1.866973 -42.5,-1.866973 -36.15725,0 -39.25511,0.136085 -42.5,1.866973 -4.91718,2.62293 -7.85268,5.497639 -10.34731,10.133027 -2.09841,3.89914 -2.15269,4.983388 -2.15269,42.999996 0,36.15725 0.13609,39.25512 1.86698,42.5 3.51853,6.59617 8.20627,10.34214 15.13302,12.0928 1.65,0.41702 19.65,0.67924 40,0.58271 34.00578,-0.16131 37.28324,-0.32659 40.5,-2.04248 z M 80.0324,166.41459 77.10932,163.49152 v -24.07693 -24.07692 h 7.51906 7.51905 l -0.76905,2.75 c -1.62559,5.81283 -0.70355,14.84165 2.10108,20.57408 5.28834,10.80899 15.23039,17.0613 27.12986,17.0613 11.89947,0 21.84153,-6.25231 27.12987,-17.0613 2.80462,-5.73243 3.72667,-14.76125 2.10108,-20.57408 l -0.76905,-2.75 h 7.51905 7.51905 v 24.07692 24.07693 l -2.92308,2.92307 -2.92307,2.92308 H 120.60932 82.95548 Z m 32.57692,-23.49428 c -3.72671,-1.66345 -8.03105,-6.17824 -9.43638,-9.89774 -1.60594,-4.25047 -1.27487,-11.76451 0.68794,-15.6138 0.96164,-1.88589 3.47771,-4.81089 5.59126,-6.49999 3.50105,-2.79797 4.49334,-3.07111 11.15718,-3.07111 6.66384,0 7.65613,0.27314 11.15718,3.07111 4.93577,3.94455 7.33931,8.72915 7.34127,14.61379 0.004,11.36752 -7.47288,18.86799 -18.71633,18.77596 -2.63017,-0.0215 -6.13212,-0.64173 -7.78212,-1.37822 z m 31.5,-49.582636 v -9 h 9 9 v 9 8.999996 h -9 -9 z"
       id="path1401"
       inkscape:connector-curvature="0" />
  </g>
</svg>
