<?xml version="1.0" encoding="UTF-8" standalone="no"?>
<!-- Created with Inkscape (http://www.inkscape.org/) -->

<svg
   xmlns:dc="http://purl.org/dc/elements/1.1/"
   xmlns:cc="http://creativecommons.org/ns#"
   xmlns:rdf="http://www.w3.org/1999/02/22-rdf-syntax-ns#"
   xmlns:svg="http://www.w3.org/2000/svg"
   xmlns="http://www.w3.org/2000/svg"
   xmlns:sodipodi="http://sodipodi.sourceforge.net/DTD/sodipodi-0.dtd"
   xmlns:inkscape="http://www.inkscape.org/namespaces/inkscape"
   width="256px"
   height="256px"
   viewBox="0 0 256 256"
   version="1.1"
   id="SVGRoot"
   inkscape:version="0.92.4 (5da689c313, 2019-01-14)"
   sodipodi:docname="pinterest.svg">
  <defs
     id="defs815" />
  <sodipodi:namedview
     id="base"
     pagecolor="#ffffff"
     bordercolor="#666666"
     borderopacity="1.0"
     inkscape:pageopacity="0.0"
     inkscape:pageshadow="2"
     inkscape:zoom="0.5"
     inkscape:cx="442.35454"
     inkscape:cy="8.6809708"
     inkscape:document-units="px"
     inkscape:current-layer="layer1"
     showgrid="false"
     inkscape:window-width="1366"
     inkscape:window-height="705"
     inkscape:window-x="-8"
     inkscape:window-y="-8"
     inkscape:window-maximized="1"
     inkscape:grid-bbox="true" />
  <metadata
     id="metadata818">
    <rdf:RDF>
      <cc:Work
         rdf:about="">
        <dc:format>image/svg+xml</dc:format>
        <dc:type
           rdf:resource="http://purl.org/dc/dcmitype/StillImage" />
        <dc:title></dc:title>
      </cc:Work>
    </rdf:RDF>
  </metadata>
  <g
     inkscape:label="Layer 1"
     inkscape:groupmode="layer"
     id="layer1">
    <path
       style="fill:#ffffff;stroke-width:1;fill-opacity:1"
       d="M 124.84975,242.51897 C 107.6798,241.17964 94.01312,237.48348 79.94498,230.37446 52.67599,216.59467 32.30086,192.85505 22.69883,163.67541 20.39387,156.67084 18.66,148.56208 17.75344,140.54733 c -0.66552,-5.88372 -0.66552,-18.47133 0,-24.35505 1.60552,-14.19415 5.34585,-26.806463 11.65446,-39.298664 15.99754,-31.678001 45.65248,-54.06552 80.51923,-60.786679 7.3693,-1.420557 12.54541,-1.876655 21.35714,-1.881903 8.7281,-0.0052 13.31828,0.364482 20.26191,1.631839 11.35571,2.072657 21.17818,5.362252 31.35119,10.499663 11.09359,5.602315 20.23384,12.202098 29.036,20.965651 9.08154,9.041711 15.74284,18.204903 21.49734,29.571429 6.27198,12.388662 10.07155,25.198064 11.65486,39.291664 0.5978,5.32124 0.68144,17.98581 0.1519,23 -2.88133,27.28323 -14.09039,51.0255 -33.03285,69.96797 -18.62482,18.62481 -42.1989,29.91961 -68.59892,32.86706 -3.53414,0.39458 -15.8818,0.72286 -18.75595,0.49866 z m -13.84073,-34.86738 c 11.90556,-2.70231 20.55427,-11.66735 23.98171,-24.85885 1.17084,-4.50632 1.57741,-8.62147 1.4092,-14.2635 -0.13792,-4.62605 -0.11358,-5.00514 0.3108,-4.84056 1.02031,0.3957 3.51182,0.96191 6.82431,1.55087 2.94702,0.52398 4.41384,0.61821 9.38018,0.60257 5.09362,-0.016 6.42192,-0.11474 9.85715,-0.73252 12.33098,-2.21756 23.13032,-7.63055 31.71366,-15.89594 8.77398,-8.44898 14.30003,-18.4326 16.23557,-29.33195 0.87763,-4.94206 0.88242,-12.97068 0.0106,-17.75731 C 207.64629,85.181553 198.10304,71.804545 182.03957,61.905266 166.03461,52.042045 143.53981,47.011277 122.38546,48.564138 96.12083,50.492129 75.93103,59.695308 63.7505,75.291893 56.65325,84.379576 52.86923,94.661316 51.62272,108.24481 c -1.18936,12.96064 2.0239,27.39831 8.16586,36.69047 1.77301,2.68238 4.32771,5.75 4.78858,5.75 0.2003,0 1.70696,-0.66165 3.34814,-1.47033 4.38707,-2.16171 7.53404,-4.52029 13.38236,-10.02981 1.35886,-1.28013 3.357,-3.12911 4.4403,-4.10883 l 1.96964,-1.78131 -1.38072,-1.77679 c -4.27393,-5.49992 -6.34054,-11.32501 -6.36261,-17.93412 -0.0162,-4.84343 0.82276,-8.55863 2.97237,-13.16304 4.48178,-9.599828 13.89185,-18.176553 24.92692,-22.7194 12.48352,-5.139142 28.3676,-5.436792 42.50961,-0.796586 8.69553,2.853133 15.08122,6.637214 20.75685,12.300241 5.70889,5.696221 9.10232,12.104655 10.42469,19.686875 0.58061,3.32907 0.38356,9.28576 -0.40587,12.26971 -2.86422,10.82629 -11.22441,18.20001 -23.72576,20.92624 -1.63414,0.35636 -3.44223,0.477 -7.11905,0.47497 -4.51374,-0.002 -5.28578,-0.0781 -9.17262,-0.89847 -4.66268,-0.98412 -5.51029,-1.31142 -6.22658,-2.4044 -0.44833,-0.68409 -0.48692,-2.29593 -0.55634,-23.23794 l -0.0746,-22.502861 -1.15755,-0.167356 c -3.71718,-0.537422 -11.19509,-1.022207 -15.94327,-1.033581 -5.65667,-0.01355 -11.64151,0.576317 -12.42234,1.224347 -0.3317,0.275288 -0.35367,3.778709 -0.15315,24.419421 0.31994,32.9326 0.28525,48.60906 -0.11588,52.36226 -0.37265,3.48675 -1.38957,7.31811 -2.40307,9.05385 -1.45352,2.48933 -4.28846,3.64244 -7.54436,3.06869 -1.02916,-0.18136 -3.39445,-1.06184 -5.83739,-2.17295 -5.61205,-2.55253 -6.36047,-2.77322 -5.97207,-1.76105 0.083,0.2163 -0.0641,3.64107 -0.32679,7.61059 -0.3715,5.61277 -0.4139,7.75697 -0.19069,9.64474 0.51637,4.36719 1.95593,7.11078 4.50052,8.57732 2.58984,1.49263 9.07141,3.36738 13.62593,3.94123 2.27771,0.28697 8.14046,-0.0623 10.66523,-0.63535 z"
       id="path1446"
       inkscape:connector-curvature="0" />
  </g>
</svg>
